<?xml version="1.0" encoding="UTF-8" standalone="no"?>
<!DOCTYPE svg PUBLIC "-//W3C//DTD SVG 1.1//EN"
 "http://www.w3.org/Graphics/SVG/1.1/DTD/svg11.dtd">
<!-- Generated by graphviz version 2.43.0 (0)
 -->
<!-- Title: inheritance Pages: 1 -->
<svg width="284pt" height="260pt"
 viewBox="0.00 0.00 284.48 260.00" xmlns="http://www.w3.org/2000/svg" xmlns:xlink="http://www.w3.org/1999/xlink">
<g id="graph0" class="graph" transform="scale(1 1) rotate(0) translate(4 256)">
<title>inheritance</title>
<polygon fill="white" stroke="transparent" points="-4,4 -4,-256 280.48,-256 280.48,4 -4,4"/>
<!-- GInterface -->
<g id="node1" class="node">
<title>GInterface</title>
<ellipse fill="none" stroke="black" cx="48.1" cy="-126" rx="48.19" ry="18"/>
<text text-anchor="middle" x="48.1" y="-122.3" font-family="Times,serif" font-size="14.00">GInterface</text>
</g>
<!-- WpSiEndpoint -->
<g id="node2" class="node">
<title>WpSiEndpoint</title>
<ellipse fill="none" stroke="black" cx="204.34" cy="-234" rx="63.89" ry="18"/>
<text text-anchor="middle" x="204.34" y="-230.3" font-family="Times,serif" font-size="14.00">WpSiEndpoint</text>
</g>
<!-- GInterface&#45;&gt;WpSiEndpoint -->
<g id="edge1" class="edge">
<title>GInterface&#45;&gt;WpSiEndpoint</title>
<path fill="none" stroke="black" d="M63.07,-143.31C78.39,-161.33 104.5,-189.34 132.19,-207 137.95,-210.67 144.29,-213.97 150.74,-216.88"/>
<polygon fill="black" stroke="black" points="149.63,-220.21 160.21,-220.88 152.36,-213.77 149.63,-220.21"/>
</g>
<!-- WpSiAdapter -->
<g id="node3" class="node">
<title>WpSiAdapter</title>
<ellipse fill="none" stroke="black" cx="204.34" cy="-180" rx="59.59" ry="18"/>
<text text-anchor="middle" x="204.34" y="-176.3" font-family="Times,serif" font-size="14.00">WpSiAdapter</text>
</g>
<!-- GInterface&#45;&gt;WpSiAdapter -->
<g id="edge2" class="edge">
<title>GInterface&#45;&gt;WpSiAdapter</title>
<path fill="none" stroke="black" d="M83.71,-138.12C104.77,-145.49 131.98,-155.02 155.13,-163.12"/>
<polygon fill="black" stroke="black" points="154.18,-166.5 164.77,-166.5 156.49,-159.89 154.18,-166.5"/>
</g>
<!-- WpSiLinkable -->
<g id="node4" class="node">
<title>WpSiLinkable</title>
<ellipse fill="none" stroke="black" cx="204.34" cy="-126" rx="62.29" ry="18"/>
<text text-anchor="middle" x="204.34" y="-122.3" font-family="Times,serif" font-size="14.00">WpSiLinkable</text>
</g>
<!-- GInterface&#45;&gt;WpSiLinkable -->
<g id="edge3" class="edge">
<title>GInterface&#45;&gt;WpSiLinkable</title>
<path fill="none" stroke="black" d="M96.21,-126C107.42,-126 119.64,-126 131.67,-126"/>
<polygon fill="black" stroke="black" points="131.72,-129.5 141.72,-126 131.72,-122.5 131.72,-129.5"/>
</g>
<!-- WpSiLink -->
<g id="node5" class="node">
<title>WpSiLink</title>
<ellipse fill="none" stroke="black" cx="204.34" cy="-72" rx="48.19" ry="18"/>
<text text-anchor="middle" x="204.34" y="-68.3" font-family="Times,serif" font-size="14.00">WpSiLink</text>
</g>
<!-- GInterface&#45;&gt;WpSiLink -->
<g id="edge4" class="edge">
<title>GInterface&#45;&gt;WpSiLink</title>
<path fill="none" stroke="black" d="M83.71,-113.88C105.96,-106.09 135.07,-95.9 159,-87.52"/>
<polygon fill="black" stroke="black" points="160.29,-90.78 168.57,-84.17 157.97,-84.17 160.29,-90.78"/>
</g>
<!-- WpSiAcquisition -->
<g id="node6" class="node">
<title>WpSiAcquisition</title>
<ellipse fill="none" stroke="black" cx="204.34" cy="-18" rx="72.29" ry="18"/>
<text text-anchor="middle" x="204.34" y="-14.3" font-family="Times,serif" font-size="14.00">WpSiAcquisition</text>
</g>
<!-- GInterface&#45;&gt;WpSiAcquisition -->
<g id="edge5" class="edge">
<title>GInterface&#45;&gt;WpSiAcquisition</title>
<path fill="none" stroke="black" d="M63.07,-108.69C78.39,-90.67 104.5,-62.66 132.19,-45 137.45,-41.64 143.2,-38.61 149.07,-35.89"/>
<polygon fill="black" stroke="black" points="150.55,-39.06 158.34,-31.87 147.77,-32.63 150.55,-39.06"/>
</g>
</g>
</svg>
