<?xml version="1.0" encoding="UTF-8" standalone="no"?>
<!DOCTYPE svg PUBLIC "-//W3C//DTD SVG 1.1//EN"
 "http://www.w3.org/Graphics/SVG/1.1/DTD/svg11.dtd">
<!-- Generated by graphviz version 2.43.0 (0)
 -->
<!-- Title: inheritance Pages: 1 -->
<svg width="279pt" height="152pt"
 viewBox="0.00 0.00 279.28 152.00" xmlns="http://www.w3.org/2000/svg" xmlns:xlink="http://www.w3.org/1999/xlink">
<g id="graph0" class="graph" transform="scale(1 1) rotate(0) translate(4 148)">
<title>inheritance</title>
<polygon fill="white" stroke="transparent" points="-4,4 -4,-148 275.28,-148 275.28,4 -4,4"/>
<!-- GBoxed -->
<g id="node1" class="node">
<title>GBoxed</title>
<ellipse fill="none" stroke="black" cx="40.3" cy="-72" rx="40.09" ry="18"/>
<text text-anchor="middle" x="40.3" y="-68.3" font-family="Times,serif" font-size="14.00">GBoxed</text>
</g>
<!-- WpSpaPod -->
<g id="node2" class="node">
<title>WpSpaPod</title>
<ellipse fill="none" stroke="black" cx="193.94" cy="-126" rx="50.89" ry="18"/>
<text text-anchor="middle" x="193.94" y="-122.3" font-family="Times,serif" font-size="14.00">WpSpaPod</text>
</g>
<!-- GBoxed&#45;&gt;WpSpaPod -->
<g id="edge1" class="edge">
<title>GBoxed&#45;&gt;WpSpaPod</title>
<path fill="none" stroke="black" d="M72.42,-83.2C85.99,-88.07 102.07,-93.83 116.59,-99 126.63,-102.57 137.41,-106.4 147.62,-110.01"/>
<polygon fill="black" stroke="black" points="146.6,-113.36 157.19,-113.4 148.93,-106.76 146.6,-113.36"/>
</g>
<!-- WpSpaPodBuilder -->
<g id="node3" class="node">
<title>WpSpaPodBuilder</title>
<ellipse fill="none" stroke="black" cx="193.94" cy="-72" rx="77.19" ry="18"/>
<text text-anchor="middle" x="193.94" y="-68.3" font-family="Times,serif" font-size="14.00">WpSpaPodBuilder</text>
</g>
<!-- GBoxed&#45;&gt;WpSpaPodBuilder -->
<g id="edge2" class="edge">
<title>GBoxed&#45;&gt;WpSpaPodBuilder</title>
<path fill="none" stroke="black" d="M80.74,-72C88.71,-72 97.38,-72 106.26,-72"/>
<polygon fill="black" stroke="black" points="106.34,-75.5 116.34,-72 106.34,-68.5 106.34,-75.5"/>
</g>
<!-- WpSpaPodParser -->
<g id="node4" class="node">
<title>WpSpaPodParser</title>
<ellipse fill="none" stroke="black" cx="193.94" cy="-18" rx="72.59" ry="18"/>
<text text-anchor="middle" x="193.94" y="-14.3" font-family="Times,serif" font-size="14.00">WpSpaPodParser</text>
</g>
<!-- GBoxed&#45;&gt;WpSpaPodParser -->
<g id="edge3" class="edge">
<title>GBoxed&#45;&gt;WpSpaPodParser</title>
<path fill="none" stroke="black" d="M72.42,-60.8C85.99,-55.93 102.07,-50.17 116.59,-45 124.68,-42.12 133.26,-39.07 141.63,-36.11"/>
<polygon fill="black" stroke="black" points="143.06,-39.32 151.32,-32.68 140.73,-32.72 143.06,-39.32"/>
</g>
</g>
</svg>
