<?xml version="1.0" encoding="UTF-8" standalone="no"?>
<!DOCTYPE svg PUBLIC "-//W3C//DTD SVG 1.1//EN"
 "http://www.w3.org/Graphics/SVG/1.1/DTD/svg11.dtd">
<!-- Generated by graphviz version 2.43.0 (0)
 -->
<!-- Title: inheritance Pages: 1 -->
<svg width="702pt" height="98pt"
 viewBox="0.00 0.00 702.25 98.00" xmlns="http://www.w3.org/2000/svg" xmlns:xlink="http://www.w3.org/1999/xlink">
<g id="graph0" class="graph" transform="scale(1 1) rotate(0) translate(4 94)">
<title>inheritance</title>
<polygon fill="white" stroke="transparent" points="-4,4 -4,-94 698.25,-94 698.25,4 -4,4"/>
<!-- GObject -->
<g id="node1" class="node">
<title>GObject</title>
<ellipse fill="none" stroke="black" cx="193.94" cy="-72" rx="40.09" ry="18"/>
<text text-anchor="middle" x="193.94" y="-68.3" font-family="Times,serif" font-size="14.00">GObject</text>
</g>
<!-- WpTransition -->
<g id="node2" class="node">
<title>WpTransition</title>
<ellipse fill="none" stroke="black" cx="351.48" cy="-45" rx="59.59" ry="18"/>
<text text-anchor="middle" x="351.48" y="-41.3" font-family="Times,serif" font-size="14.00">WpTransition</text>
</g>
<!-- GObject&#45;&gt;WpTransition -->
<g id="edge1" class="edge">
<title>GObject&#45;&gt;WpTransition</title>
<path fill="none" stroke="black" d="M231.8,-65.6C248.93,-62.63 269.77,-59.01 289.18,-55.64"/>
<polygon fill="black" stroke="black" points="289.91,-59.07 299.17,-53.91 288.72,-52.17 289.91,-59.07"/>
</g>
<!-- WpFeatureActivationTransition -->
<g id="node5" class="node">
<title>WpFeatureActivationTransition</title>
<ellipse fill="none" stroke="black" cx="570.76" cy="-45" rx="123.48" ry="18"/>
<text text-anchor="middle" x="570.76" y="-41.3" font-family="Times,serif" font-size="14.00">WpFeatureActivationTransition</text>
</g>
<!-- WpTransition&#45;&gt;WpFeatureActivationTransition -->
<g id="edge4" class="edge">
<title>WpTransition&#45;&gt;WpFeatureActivationTransition</title>
<path fill="none" stroke="black" d="M411.28,-45C419.4,-45 428,-45 436.83,-45"/>
<polygon fill="black" stroke="black" points="436.88,-48.5 446.88,-45 436.88,-41.5 436.88,-48.5"/>
</g>
<!-- GInterface -->
<g id="node3" class="node">
<title>GInterface</title>
<ellipse fill="none" stroke="black" cx="48.1" cy="-18" rx="48.19" ry="18"/>
<text text-anchor="middle" x="48.1" y="-14.3" font-family="Times,serif" font-size="14.00">GInterface</text>
</g>
<!-- GAsyncResult -->
<g id="node4" class="node">
<title>GAsyncResult</title>
<ellipse fill="none" stroke="black" cx="193.94" cy="-18" rx="61.99" ry="18"/>
<text text-anchor="middle" x="193.94" y="-14.3" font-family="Times,serif" font-size="14.00">GAsyncResult</text>
</g>
<!-- GInterface&#45;&gt;GAsyncResult -->
<g id="edge2" class="edge">
<title>GInterface&#45;&gt;GAsyncResult</title>
<path fill="none" stroke="black" d="M96.19,-18C104.44,-18 113.18,-18 121.9,-18"/>
<polygon fill="black" stroke="black" points="122.1,-21.5 132.1,-18 122.1,-14.5 122.1,-21.5"/>
</g>
<!-- GAsyncResult&#45;&gt;WpTransition -->
<g id="edge3" class="edge">
<title>GAsyncResult&#45;&gt;WpTransition</title>
<path fill="none" stroke="black" d="M247.59,-27.14C261,-29.47 275.52,-31.99 289.3,-34.38"/>
<polygon fill="black" stroke="black" points="288.74,-37.84 299.19,-36.1 289.93,-30.94 288.74,-37.84"/>
</g>
</g>
</svg>
