<?xml version="1.0" encoding="UTF-8" standalone="no"?>
<!DOCTYPE svg PUBLIC "-//W3C//DTD SVG 1.1//EN"
 "http://www.w3.org/Graphics/SVG/1.1/DTD/svg11.dtd">
<!-- Generated by graphviz version 2.43.0 (0)
 -->
<!-- Title: inheritance Pages: 1 -->
<svg width="283pt" height="152pt"
 viewBox="0.00 0.00 283.18 152.00" xmlns="http://www.w3.org/2000/svg" xmlns:xlink="http://www.w3.org/1999/xlink">
<g id="graph0" class="graph" transform="scale(1 1) rotate(0) translate(4 148)">
<title>inheritance</title>
<polygon fill="white" stroke="transparent" points="-4,4 -4,-148 279.18,-148 279.18,4 -4,4"/>
<!-- GBoxed -->
<g id="node1" class="node">
<title>GBoxed</title>
<ellipse fill="none" stroke="black" cx="40.3" cy="-72" rx="40.09" ry="18"/>
<text text-anchor="middle" x="40.3" y="-68.3" font-family="Times,serif" font-size="14.00">GBoxed</text>
</g>
<!-- WpSpaJson -->
<g id="node2" class="node">
<title>WpSpaJson</title>
<ellipse fill="none" stroke="black" cx="195.89" cy="-126" rx="52.79" ry="18"/>
<text text-anchor="middle" x="195.89" y="-122.3" font-family="Times,serif" font-size="14.00">WpSpaJson</text>
</g>
<!-- GBoxed&#45;&gt;WpSpaJson -->
<g id="edge1" class="edge">
<title>GBoxed&#45;&gt;WpSpaJson</title>
<path fill="none" stroke="black" d="M72.04,-83.12C85.67,-88.03 101.92,-93.84 116.59,-99 126.77,-102.58 137.7,-106.38 148.08,-109.96"/>
<polygon fill="black" stroke="black" points="147.22,-113.37 157.81,-113.32 149.5,-106.75 147.22,-113.37"/>
</g>
<!-- WpSpaJsonBuilder -->
<g id="node3" class="node">
<title>WpSpaJsonBuilder</title>
<ellipse fill="none" stroke="black" cx="195.89" cy="-72" rx="79.09" ry="18"/>
<text text-anchor="middle" x="195.89" y="-68.3" font-family="Times,serif" font-size="14.00">WpSpaJsonBuilder</text>
</g>
<!-- GBoxed&#45;&gt;WpSpaJsonBuilder -->
<g id="edge2" class="edge">
<title>GBoxed&#45;&gt;WpSpaJsonBuilder</title>
<path fill="none" stroke="black" d="M80.85,-72C88.79,-72 97.44,-72 106.3,-72"/>
<polygon fill="black" stroke="black" points="106.36,-75.5 116.36,-72 106.36,-68.5 106.36,-75.5"/>
</g>
<!-- WpSpaJsonParser -->
<g id="node4" class="node">
<title>WpSpaJsonParser</title>
<ellipse fill="none" stroke="black" cx="195.89" cy="-18" rx="74.99" ry="18"/>
<text text-anchor="middle" x="195.89" y="-14.3" font-family="Times,serif" font-size="14.00">WpSpaJsonParser</text>
</g>
<!-- GBoxed&#45;&gt;WpSpaJsonParser -->
<g id="edge3" class="edge">
<title>GBoxed&#45;&gt;WpSpaJsonParser</title>
<path fill="none" stroke="black" d="M72.04,-60.88C85.67,-55.97 101.92,-50.16 116.59,-45 124.97,-42.05 133.86,-38.96 142.53,-35.96"/>
<polygon fill="black" stroke="black" points="143.88,-39.19 152.19,-32.62 141.59,-32.58 143.88,-39.19"/>
</g>
</g>
</svg>
