<?xml version="1.0" encoding="UTF-8" standalone="no"?>
<!DOCTYPE svg PUBLIC "-//W3C//DTD SVG 1.1//EN"
 "http://www.w3.org/Graphics/SVG/1.1/DTD/svg11.dtd">
<!-- Generated by graphviz version 2.43.0 (0)
 -->
<!-- Title: inheritance Pages: 1 -->
<svg width="854pt" height="44pt"
 viewBox="0.00 0.00 853.54 44.00" xmlns="http://www.w3.org/2000/svg" xmlns:xlink="http://www.w3.org/1999/xlink">
<g id="graph0" class="graph" transform="scale(1 1) rotate(0) translate(4 40)">
<title>inheritance</title>
<polygon fill="white" stroke="transparent" points="-4,4 -4,-40 849.54,-40 849.54,4 -4,4"/>
<!-- GObject -->
<g id="node1" class="node">
<title>GObject</title>
<ellipse fill="none" stroke="black" cx="40.3" cy="-18" rx="40.09" ry="18"/>
<text text-anchor="middle" x="40.3" y="-14.3" font-family="Times,serif" font-size="14.00">GObject</text>
</g>
<!-- WpObject -->
<g id="node2" class="node">
<title>WpObject</title>
<ellipse fill="none" stroke="black" cx="164.04" cy="-18" rx="47.39" ry="18"/>
<text text-anchor="middle" x="164.04" y="-14.3" font-family="Times,serif" font-size="14.00">WpObject</text>
</g>
<!-- GObject&#45;&gt;WpObject -->
<g id="edge1" class="edge">
<title>GObject&#45;&gt;WpObject</title>
<path fill="none" stroke="black" d="M80.82,-18C89.01,-18 97.78,-18 106.44,-18"/>
<polygon fill="black" stroke="black" points="106.51,-21.5 116.51,-18 106.51,-14.5 106.51,-21.5"/>
</g>
<!-- WpProxy -->
<g id="node3" class="node">
<title>WpProxy</title>
<ellipse fill="none" stroke="black" cx="292.33" cy="-18" rx="44.69" ry="18"/>
<text text-anchor="middle" x="292.33" y="-14.3" font-family="Times,serif" font-size="14.00">WpProxy</text>
</g>
<!-- WpObject&#45;&gt;WpProxy -->
<g id="edge2" class="edge">
<title>WpObject&#45;&gt;WpProxy</title>
<path fill="none" stroke="black" d="M211.71,-18C220,-18 228.7,-18 237.18,-18"/>
<polygon fill="black" stroke="black" points="237.37,-21.5 247.37,-18 237.37,-14.5 237.37,-21.5"/>
</g>
<!-- WpGlobalProxy -->
<g id="node4" class="node">
<title>WpGlobalProxy</title>
<ellipse fill="none" stroke="black" cx="442.07" cy="-18" rx="68.79" ry="18"/>
<text text-anchor="middle" x="442.07" y="-14.3" font-family="Times,serif" font-size="14.00">WpGlobalProxy</text>
</g>
<!-- WpProxy&#45;&gt;WpGlobalProxy -->
<g id="edge3" class="edge">
<title>WpProxy&#45;&gt;WpGlobalProxy</title>
<path fill="none" stroke="black" d="M337.26,-18C345.33,-18 353.97,-18 362.7,-18"/>
<polygon fill="black" stroke="black" points="362.95,-21.5 372.95,-18 362.95,-14.5 362.95,-21.5"/>
</g>
<!-- WpMetadata -->
<g id="node5" class="node">
<title>WpMetadata</title>
<ellipse fill="none" stroke="black" cx="604.16" cy="-18" rx="57.39" ry="18"/>
<text text-anchor="middle" x="604.16" y="-14.3" font-family="Times,serif" font-size="14.00">WpMetadata</text>
</g>
<!-- WpGlobalProxy&#45;&gt;WpMetadata -->
<g id="edge4" class="edge">
<title>WpGlobalProxy&#45;&gt;WpMetadata</title>
<path fill="none" stroke="black" d="M511.43,-18C519.76,-18 528.28,-18 536.59,-18"/>
<polygon fill="black" stroke="black" points="536.6,-21.5 546.6,-18 536.6,-14.5 536.6,-21.5"/>
</g>
<!-- WpImplMetadata -->
<g id="node6" class="node">
<title>WpImplMetadata</title>
<ellipse fill="none" stroke="black" cx="771.45" cy="-18" rx="74.19" ry="18"/>
<text text-anchor="middle" x="771.45" y="-14.3" font-family="Times,serif" font-size="14.00">WpImplMetadata</text>
</g>
<!-- WpMetadata&#45;&gt;WpImplMetadata -->
<g id="edge5" class="edge">
<title>WpMetadata&#45;&gt;WpImplMetadata</title>
<path fill="none" stroke="black" d="M661.58,-18C669.85,-18 678.51,-18 687.17,-18"/>
<polygon fill="black" stroke="black" points="687.33,-21.5 697.33,-18 687.33,-14.5 687.33,-21.5"/>
</g>
</g>
</svg>
