<?xml version="1.0" encoding="UTF-8" standalone="no"?>
<!DOCTYPE svg PUBLIC "-//W3C//DTD SVG 1.1//EN"
 "http://www.w3.org/Graphics/SVG/1.1/DTD/svg11.dtd">
<!-- Generated by graphviz version 2.43.0 (0)
 -->
<!-- Title: inheritance Pages: 1 -->
<svg width="570pt" height="98pt"
 viewBox="0.00 0.00 569.66 98.00" xmlns="http://www.w3.org/2000/svg" xmlns:xlink="http://www.w3.org/1999/xlink">
<g id="graph0" class="graph" transform="scale(1 1) rotate(0) translate(4 94)">
<title>inheritance</title>
<polygon fill="white" stroke="transparent" points="-4,4 -4,-94 565.66,-94 565.66,4 -4,4"/>
<!-- GObject -->
<g id="node1" class="node">
<title>GObject</title>
<ellipse fill="none" stroke="black" cx="40.3" cy="-72" rx="40.09" ry="18"/>
<text text-anchor="middle" x="40.3" y="-68.3" font-family="Times,serif" font-size="14.00">GObject</text>
</g>
<!-- WpObject -->
<g id="node2" class="node">
<title>WpObject</title>
<ellipse fill="none" stroke="black" cx="164.69" cy="-72" rx="47.39" ry="18"/>
<text text-anchor="middle" x="164.69" y="-68.3" font-family="Times,serif" font-size="14.00">WpObject</text>
</g>
<!-- GObject&#45;&gt;WpObject -->
<g id="edge1" class="edge">
<title>GObject&#45;&gt;WpObject</title>
<path fill="none" stroke="black" d="M80.7,-72C89.03,-72 97.99,-72 106.83,-72"/>
<polygon fill="black" stroke="black" points="107.1,-75.5 117.1,-72 107.1,-68.5 107.1,-75.5"/>
</g>
<!-- WpProxy -->
<g id="node3" class="node">
<title>WpProxy</title>
<ellipse fill="none" stroke="black" cx="327.43" cy="-72" rx="44.69" ry="18"/>
<text text-anchor="middle" x="327.43" y="-68.3" font-family="Times,serif" font-size="14.00">WpProxy</text>
</g>
<!-- WpObject&#45;&gt;WpProxy -->
<g id="edge2" class="edge">
<title>WpObject&#45;&gt;WpProxy</title>
<path fill="none" stroke="black" d="M212.18,-72C230.96,-72 252.77,-72 272.27,-72"/>
<polygon fill="black" stroke="black" points="272.52,-75.5 282.52,-72 272.52,-68.5 272.52,-75.5"/>
</g>
<!-- WpImplNode -->
<g id="node4" class="node">
<title>WpImplNode</title>
<ellipse fill="none" stroke="black" cx="501.87" cy="-45" rx="59.59" ry="18"/>
<text text-anchor="middle" x="501.87" y="-41.3" font-family="Times,serif" font-size="14.00">WpImplNode</text>
</g>
<!-- WpProxy&#45;&gt;WpImplNode -->
<g id="edge3" class="edge">
<title>WpProxy&#45;&gt;WpImplNode</title>
<path fill="none" stroke="black" d="M369.73,-65.53C390.3,-62.31 415.6,-58.35 438.48,-54.77"/>
<polygon fill="black" stroke="black" points="439.11,-58.21 448.45,-53.21 438.03,-51.3 439.11,-58.21"/>
</g>
<!-- GInterface -->
<g id="node5" class="node">
<title>GInterface</title>
<ellipse fill="none" stroke="black" cx="164.69" cy="-18" rx="48.19" ry="18"/>
<text text-anchor="middle" x="164.69" y="-14.3" font-family="Times,serif" font-size="14.00">GInterface</text>
</g>
<!-- WpPipewireObject -->
<g id="node6" class="node">
<title>WpPipewireObject</title>
<ellipse fill="none" stroke="black" cx="327.43" cy="-18" rx="78.79" ry="18"/>
<text text-anchor="middle" x="327.43" y="-14.3" font-family="Times,serif" font-size="14.00">WpPipewireObject</text>
</g>
<!-- GInterface&#45;&gt;WpPipewireObject -->
<g id="edge4" class="edge">
<title>GInterface&#45;&gt;WpPipewireObject</title>
<path fill="none" stroke="black" d="M213.05,-18C221.1,-18 229.69,-18 238.4,-18"/>
<polygon fill="black" stroke="black" points="238.65,-21.5 248.65,-18 238.65,-14.5 238.65,-21.5"/>
</g>
<!-- WpPipewireObject&#45;&gt;WpImplNode -->
<g id="edge5" class="edge">
<title>WpPipewireObject&#45;&gt;WpImplNode</title>
<path fill="none" stroke="black" d="M393.13,-28.13C407.96,-30.45 423.7,-32.92 438.43,-35.22"/>
<polygon fill="black" stroke="black" points="438.02,-38.7 448.44,-36.79 439.11,-31.79 438.02,-38.7"/>
</g>
</g>
</svg>
