<?xml version="1.0" encoding="UTF-8" standalone="no"?>
<!DOCTYPE svg PUBLIC "-//W3C//DTD SVG 1.1//EN"
 "http://www.w3.org/Graphics/SVG/1.1/DTD/svg11.dtd">
<!-- Generated by graphviz version 2.43.0 (0)
 -->
<!-- Title: inheritance Pages: 1 -->
<svg width="678pt" height="98pt"
 viewBox="0.00 0.00 678.45 98.00" xmlns="http://www.w3.org/2000/svg" xmlns:xlink="http://www.w3.org/1999/xlink">
<g id="graph0" class="graph" transform="scale(1 1) rotate(0) translate(4 94)">
<title>inheritance</title>
<polygon fill="white" stroke="transparent" points="-4,4 -4,-94 674.45,-94 674.45,4 -4,4"/>
<!-- GObject -->
<g id="node1" class="node">
<title>GObject</title>
<ellipse fill="none" stroke="black" cx="40.3" cy="-72" rx="40.09" ry="18"/>
<text text-anchor="middle" x="40.3" y="-68.3" font-family="Times,serif" font-size="14.00">GObject</text>
</g>
<!-- WpObject -->
<g id="node2" class="node">
<title>WpObject</title>
<ellipse fill="none" stroke="black" cx="164.04" cy="-72" rx="47.39" ry="18"/>
<text text-anchor="middle" x="164.04" y="-68.3" font-family="Times,serif" font-size="14.00">WpObject</text>
</g>
<!-- GObject&#45;&gt;WpObject -->
<g id="edge1" class="edge">
<title>GObject&#45;&gt;WpObject</title>
<path fill="none" stroke="black" d="M80.82,-72C89.01,-72 97.78,-72 106.44,-72"/>
<polygon fill="black" stroke="black" points="106.51,-75.5 116.51,-72 106.51,-68.5 106.51,-75.5"/>
</g>
<!-- WpProxy -->
<g id="node3" class="node">
<title>WpProxy</title>
<ellipse fill="none" stroke="black" cx="295.58" cy="-72" rx="44.69" ry="18"/>
<text text-anchor="middle" x="295.58" y="-68.3" font-family="Times,serif" font-size="14.00">WpProxy</text>
</g>
<!-- WpObject&#45;&gt;WpProxy -->
<g id="edge2" class="edge">
<title>WpObject&#45;&gt;WpProxy</title>
<path fill="none" stroke="black" d="M211.81,-72C221.07,-72 230.86,-72 240.34,-72"/>
<polygon fill="black" stroke="black" points="240.47,-75.5 250.47,-72 240.47,-68.5 240.47,-75.5"/>
</g>
<!-- WpGlobalProxy -->
<g id="node4" class="node">
<title>WpGlobalProxy</title>
<ellipse fill="none" stroke="black" cx="458.32" cy="-72" rx="68.79" ry="18"/>
<text text-anchor="middle" x="458.32" y="-68.3" font-family="Times,serif" font-size="14.00">WpGlobalProxy</text>
</g>
<!-- WpProxy&#45;&gt;WpGlobalProxy -->
<g id="edge3" class="edge">
<title>WpProxy&#45;&gt;WpGlobalProxy</title>
<path fill="none" stroke="black" d="M340.5,-72C352.5,-72 365.88,-72 379.17,-72"/>
<polygon fill="black" stroke="black" points="379.3,-75.5 389.3,-72 379.3,-68.5 379.3,-75.5"/>
</g>
<!-- WpDevice -->
<g id="node5" class="node">
<title>WpDevice</title>
<ellipse fill="none" stroke="black" cx="621.71" cy="-45" rx="48.99" ry="18"/>
<text text-anchor="middle" x="621.71" y="-41.3" font-family="Times,serif" font-size="14.00">WpDevice</text>
</g>
<!-- WpGlobalProxy&#45;&gt;WpDevice -->
<g id="edge4" class="edge">
<title>WpGlobalProxy&#45;&gt;WpDevice</title>
<path fill="none" stroke="black" d="M516.67,-62.4C532.95,-59.68 550.61,-56.73 566.68,-54.04"/>
<polygon fill="black" stroke="black" points="567.7,-57.42 576.99,-52.31 566.54,-50.51 567.7,-57.42"/>
</g>
<!-- GInterface -->
<g id="node6" class="node">
<title>GInterface</title>
<ellipse fill="none" stroke="black" cx="295.58" cy="-18" rx="48.19" ry="18"/>
<text text-anchor="middle" x="295.58" y="-14.3" font-family="Times,serif" font-size="14.00">GInterface</text>
</g>
<!-- WpPipewireObject -->
<g id="node7" class="node">
<title>WpPipewireObject</title>
<ellipse fill="none" stroke="black" cx="458.32" cy="-18" rx="78.79" ry="18"/>
<text text-anchor="middle" x="458.32" y="-14.3" font-family="Times,serif" font-size="14.00">WpPipewireObject</text>
</g>
<!-- GInterface&#45;&gt;WpPipewireObject -->
<g id="edge5" class="edge">
<title>GInterface&#45;&gt;WpPipewireObject</title>
<path fill="none" stroke="black" d="M343.94,-18C351.99,-18 360.58,-18 369.29,-18"/>
<polygon fill="black" stroke="black" points="369.55,-21.5 379.55,-18 369.55,-14.5 369.55,-21.5"/>
</g>
<!-- WpPipewireObject&#45;&gt;WpDevice -->
<g id="edge6" class="edge">
<title>WpPipewireObject&#45;&gt;WpDevice</title>
<path fill="none" stroke="black" d="M522.18,-28.52C536.85,-30.97 552.35,-33.56 566.6,-35.95"/>
<polygon fill="black" stroke="black" points="566.29,-39.44 576.73,-37.64 567.45,-32.54 566.29,-39.44"/>
</g>
</g>
</svg>
